<svg width="33" height="32" viewBox="0 0 33 32" fill="none" xmlns="http://www.w3.org/2000/svg">
  <defs>
    <clipPath id="half-star-clip">
      <rect x="0" y="0" width="16.5" height="32"/>
    </clipPath>
    <linearGradient id="half-star-gradient" x1="0" y1="0" x2="1" y2="0">
      <stop offset="50%" stop-color="#8CD9FF"/>
      <stop offset="50%" stop-color="white"/>
    </linearGradient>
  </defs>
  <path d="M17.6926 3.4038C17.4668 2.95208 17.0051 2.66675 16.5 2.66675C15.995 2.66675 15.5333 2.95208 15.3075 3.4038L11.6158 10.7871L3.63064 12.0156C3.12154 12.0939 2.70309 12.4585 2.55575 12.952C2.40842 13.4456 2.55856 13.9799 2.94143 14.3245L9.02423 19.799L7.20086 27.7003C7.08126 28.2185 7.28112 28.7583 7.7094 29.0737C8.13768 29.3891 8.71244 29.4198 9.17187 29.1518L16.5 24.877L23.8282 29.1518C24.2876 29.4198 24.8624 29.3891 25.2907 29.0737C25.719 28.7583 25.9188 28.2185 25.7992 27.7003L23.9759 19.799L30.0587 14.3245C30.4415 13.9799 30.5917 13.4456 30.4443 12.952C30.297 12.4585 29.8786 12.0939 29.3695 12.0156L21.3843 10.7871L17.6926 3.4038Z" fill="url(#half-star-gradient)" clip-path="url(#half-star-clip)"/>
</svg>
